# xmcd
#
# Track frame offsets: 
#        150
#        36191
#        72331
#        111353
#        153722
#        187522
#        234187
#        274471
#        309105
#        332032
#
# Disc length: 4772 seconds
#
# Revision: 0
# Processed by: cddbd v1.5.2PL0 Copyright (c) Steve Scherf et al.
# Submitted via: ExactAudioCopy v1.0b3
#
DISCID=8212a20a
DTITLE=Various Artist - 50 Eye-Trance Tracks - CD 5
DYEAR=1900
DGENRE=
TTITLE0=Jerom - One Day
TTITLE1=Michael Angelo and Solo Feat. Denise Rivera - Alone (Original Mi
TTITLE1=x)
TTITLE2=Bissen Feat. Victoria Gross - Like I Do (Rework Vocal)
TTITLE3=Stuart James - Linear Movement (Original Mix)
TTITLE4=Rene Ablaze - Metamorphic (Pluton and Turn Remix)
TTITLE5=Jason Van Wyk and Dreamquest - Imagine (Ian Buff Mix)
TTITLE6=Transformer On Maui - Haleakala (DJ Cosmo and Pedro Del Mar Remi
TTITLE6=x)
TTITLE7=SoundLift - Follow The Way (Original Mix)
TTITLE8=ReOrder - Driven By Moment (Original Mix Edit)
TTITLE9=Kyau and Albert - Let Me In (1998 Version)
EXTD=
EXTT0=
EXTT1=
EXTT2=
EXTT3=
EXTT4=
EXTT5=
EXTT6=
EXTT7=
EXTT8=
EXTT9=
PLAYORDER=
